<svg width="929" height="1320" viewBox="0 0 929 1320" fill="none" xmlns="http://www.w3.org/2000/svg">
<rect width="929" height="1320" fill="#333333"/>
<mask id="mask0_1224_1115" style="mask-type:alpha" maskUnits="userSpaceOnUse" x="0" y="0" width="929" height="1320">
<rect width="929" height="1320" fill="#333333"/>
</mask>
<g mask="url(#mask0_1224_1115)">
<g opacity="0.02">
<mask id="mask1_1224_1115" style="mask-type:luminance" maskUnits="userSpaceOnUse" x="-316" y="-24" width="1517" height="1351">
<path d="M-315.355 -24H1200.23V1327H-315.355V-24Z" fill="white"/>
</mask>
<g mask="url(#mask1_1224_1115)">
<path d="M-292.794 930.399C-279.517 969.513 -262.043 1006.82 -240.316 1041.73C-196.288 1112.75 -137.171 1173.5 -67.2202 1219.54C-40.0904 1237.59 -7.21283 1257.77 28.3663 1273.11C51.5875 1283.03 76.0158 1289.96 100.76 1293.58C118.55 1296.57 136.943 1298.69 154.445 1300.79C165.883 1302 177.666 1303.49 189.104 1304.99C202.985 1306.8 217.154 1309.21 231.035 1311.31C260.579 1315.82 291.042 1320.65 321.506 1322.75C414.075 1329.07 506.96 1320.33 596.54 1296.28C641.172 1284.24 684.884 1268.6 726.814 1249.03C737.074 1244.23 747.334 1239.12 757.565 1234C954.199 1131.69 1107.41 943.332 1166.81 729.714C1226.22 516.095 1192.73 275.979 1076.63 87.0194C1050.39 44.313 1023.55 24.4542 994.319 25.6612C960.838 27.1557 940.634 55.435 921.034 82.8235C910.17 97.8541 899.307 113.201 886.029 124.639C849.243 156.223 794.351 153.522 755.467 140.273C722.302 129.151 692.126 110.183 662.87 92.135C652.926 86.1285 642.982 79.8059 632.722 73.7994C528.37 12.4125 406.861 -18.5971 285.611 -18.5971C194.249 -18.8845 103.462 -0.83627 19.3422 34.9727C-50.3216 64.7753 -95.2697 100.872 -118.778 145.992C-152.259 210.684 -138.982 286.498 -126.021 359.927C-112.743 435.137 -99.1782 512.762 -137.775 575.672C-155.881 605.445 -184.217 628.006 -211.663 649.991C-239.109 671.948 -268.078 694.796 -286.759 725.805C-326.879 790.497 -312.107 872.921 -292.794 930.399ZM-281.327 728.219C-262.934 698.417 -234.885 675.856 -207.439 654.187C-179.705 631.914 -151.052 609.067 -132.056 578.373C-92.252 513.681 -106.133 434.85 -119.698 358.432C-132.372 285.923 -145.621 211.288 -113.059 148.406C-90.4415 104.78 -46.0969 69.2873 22.0437 40.3757C215.659 -42.3644 448.476 -27.6212 630.021 78.915C639.965 84.9214 650.225 91.2441 660.168 97.2505C689.712 115.615 720.176 134.554 753.944 145.992C772.337 152.315 791.966 155.332 811.25 155.332C839.3 155.332 867.636 148.119 890.254 128.864C904.135 117.109 915.286 101.159 926.465 85.8124C946.066 58.4527 964.459 32.5586 994.922 31.3516C1021.74 30.1733 1046.77 49.4286 1071.8 89.7209C1186.7 277.474 1220.18 516.095 1161.06 728.219C1101.98 940.343 949.974 1127.18 754.26 1228.57C744.317 1233.68 734.057 1238.8 723.797 1243.63C682.182 1262.88 639.045 1278.52 594.729 1290.56C505.753 1314.33 413.471 1323.06 321.793 1316.74C291.646 1314.64 261.182 1309.81 231.638 1305.3C217.757 1303.2 203.589 1301.08 189.708 1298.98C178.27 1297.48 166.487 1295.96 155.049 1294.78C137.546 1292.66 119.153 1290.56 101.364 1287.86C76.9355 1283.95 53.1107 1277.31 30.493 1267.68C-4.79873 1252.65 -37.0728 1232.48 -63.9152 1214.74C-133.263 1169.31 -191.46 1109.13 -235.201 1038.72C-256.611 1004.12 -274.085 967.099 -287.075 928.589C-306.072 872.03 -320.527 791.704 -281.327 728.219ZM-182.119 1030.9C-161.916 1063.69 -138.091 1094.39 -111.249 1121.77C-102.799 1130.48 -93.7465 1138.9 -84.7224 1147.04C-64.5187 1164.8 -43.1081 1181.03 -20.4903 1195.49C3.33445 1210.84 35.005 1230.09 69.4058 1244.23C91.1039 1253.26 114.038 1259.26 137.259 1262.57C151.111 1264.69 164.389 1266.19 175.856 1267.39L190.024 1268.89C199.68 1269.81 209.912 1270.99 219.884 1272.19C231.926 1273.72 243.996 1275.21 256.067 1277.02C284.72 1280.93 313.976 1284.84 343.52 1286.33C386.629 1288.46 429.479 1286.94 472.3 1282.14C514.518 1277.63 556.132 1269.81 596.827 1258.37C637.551 1247.22 677.354 1232.48 715.664 1214.14C725.004 1209.63 734.344 1205.12 743.713 1200C822.114 1157.87 892.668 1102.81 952.072 1036.91C1032 949.367 1089.59 843.751 1120.37 729.398C1145.69 632.23 1151.44 530.839 1136.95 431.229C1122.78 331.647 1088.38 236.262 1035.62 150.504C1011.79 112.31 987.68 94.2617 961.125 95.1526C930.661 96.3596 912.584 121.334 894.795 145.705C885.139 158.925 875.195 172.777 863.124 182.405C835.075 205.885 791.046 210.684 745.811 195.941C712.646 185.106 682.182 167.374 652.322 150.217C644.477 145.705 636.631 141.193 628.498 136.681C522.335 77.3918 404.131 46.4109 290.151 46.4109C248.221 46.4109 206.607 50.6069 165.596 59.3436C128.494 67.4768 92.0235 79.5185 57.3354 95.1526C-6.00578 123.748 -47.0166 158.35 -67.8237 201.373C-96.1606 260.029 -84.1189 328.026 -72.3358 393.638C-67.8237 418.612 -63.3117 444.477 -60.8976 469.452C-55.7533 524.516 -62.9956 563.917 -84.1189 597.628C-100.989 624.701 -127.228 645.479 -152.259 665.913C-177.895 686.691 -204.737 707.757 -222.239 736.324C-259.916 797.107 -247.242 873.524 -229.769 926.778C-218.015 963.507 -202.007 998.109 -182.119 1030.9ZM-217.411 740.232C-200.513 712.872 -174.274 691.807 -148.954 671.344C-123.606 650.882 -97.0802 629.529 -79.2907 601.537C-57.2765 566.648 -50.0342 526.01 -55.1498 469.739C-57.5639 444.477 -62.1047 418.899 -66.6167 393.638C-78.371 328.946 -90.1254 261.84 -62.7082 204.965C-42.5045 163.437 -2.67204 129.438 59.4333 101.475C93.8054 86.1285 129.701 74.0868 166.487 66.2697C206.894 57.533 248.537 53.3371 289.835 53.3371C402.637 53.3371 519.95 84.0305 625.193 142.687C633.038 147.199 640.856 151.711 649.017 156.223C679.165 173.381 709.916 191.141 743.397 202.264C760.296 207.983 777.769 211 795.559 211C823.004 211 848.036 203.154 866.429 187.52C878.816 177.002 889.047 163.149 899.02 149.613C916.809 125.53 933.392 102.682 960.838 101.763C984.95 100.872 1007.28 118.029 1029.9 154.413C1133.33 321.1 1165 535.954 1114.02 728.507C1083.58 841.94 1026.56 946.637 947.273 1033.6C888.156 1098.9 818.176 1153.36 740.695 1195.17C731.643 1200 722.302 1204.51 712.933 1209.03C674.94 1227.07 635.74 1241.5 595.333 1252.94C554.925 1264.09 513.311 1271.91 471.697 1276.42C429.163 1281.22 386.341 1282.43 343.52 1280.33C314.264 1278.83 285.007 1274.92 256.67 1270.99C244.916 1269.49 232.529 1267.68 220.488 1266.19C210.515 1264.98 200.284 1264.09 190.311 1262.88L176.143 1261.36C164.676 1260.18 151.427 1258.66 137.834 1256.56C114.929 1253.26 92.9145 1247.22 71.5038 1238.51C37.7352 1224.66 6.35206 1205.4 -17.1566 1190.37C-39.4869 1175.92 -60.5815 1159.97 -80.4977 1142.52C-89.5218 1134.71 -98.2873 1126.29 -106.737 1117.55C-133.263 1090.16 -156.771 1060.07 -176.688 1027.28C-196.288 995.091 -212.267 960.777 -224.05 924.996C-241.523 873.237 -254.197 798.918 -217.411 740.232ZM-123.923 1020.07C-105.53 1050.44 -83.5153 1078.72 -58.4835 1104.01C-50.6377 1112.15 -42.1884 1119.96 -33.7391 1127.18C-15.0586 1143.73 5.14502 1158.47 26.2683 1171.72C58.8298 1192.16 84.7813 1205.72 110.417 1215.64C130.62 1223.45 152.031 1228.88 173.442 1231.87C186.69 1233.68 199.364 1234.89 209.308 1236.1L225.603 1237.59C233.736 1238.2 242.186 1239.12 250.348 1240.01C260.291 1240.9 270.235 1242.1 280.179 1243.31C307.941 1246.33 336.594 1249.63 364.931 1250.55C404.734 1251.44 444.854 1249.35 484.342 1244.23C522.335 1239.72 560.041 1231.87 597.143 1221.35C633.929 1210.84 669.825 1196.98 704.484 1180.14C713.853 1175.63 721.986 1171.41 729.832 1167.18C801.594 1127.49 866.142 1076.02 920.718 1015.24C994.319 934.308 1046.48 836.221 1072.72 730.317C1094.13 643.352 1098.04 553.399 1085.08 464.94C1072.12 376.48 1041.05 291.93 993.715 215.8C972.592 182.405 951.469 166.167 928.563 166.167H927.069C899.91 167.058 883.328 188.727 867.349 209.793C858.612 221.231 849.559 232.957 838.983 241.694C814.268 261.84 775.067 266.064 734.66 252.816C699.685 241.694 668.618 225.14 636.027 207.983L623.066 201.056C540.757 157.747 424.335 112.31 297.681 112.31C262.993 112.31 228.305 115.902 194.536 122.828C159.877 130.358 126.079 141.796 94.1215 157.143C37.4191 184.215 -0.257947 218.501 -18.0762 258.822C-41.2975 311.472 -30.118 371.365 -19.5707 429.734C-15.0586 454.392 -10.2304 479.97 -8.10374 504.657C-4.19521 553.686 -11.4375 590.702 -31.325 621.396C-47.0166 646.054 -70.8414 665.022 -93.7465 683.673C-117.571 702.641 -142 722.5 -158.582 748.681C-193.874 804.924 -182.723 875.048 -167.348 924.077C-156.771 957.472 -142.316 989.688 -123.923 1020.07ZM-153.466 751.986C-137.775 726.696 -113.347 707.441 -90.1253 688.502C-66.6167 669.85 -42.5045 650.279 -26.2094 625.017C-5.68965 593.116 2.12741 554.606 -2.06852 504.341C-4.19521 479.367 -9.0234 453.789 -13.5354 428.843C-24.6863 368.951 -34.9461 312.392 -12.6445 261.552C4.5415 222.726 41.3564 189.331 96.5356 162.862C127.89 147.803 161.371 136.365 195.456 128.864C358.895 94.2617 516.616 152.027 620.048 206.488L632.722 213.386C664.393 230.255 696.954 247.384 732.534 258.822C747.622 263.938 763.601 266.352 779.58 266.668C804.008 266.668 826.022 259.742 842.317 246.493C853.468 237.469 862.808 225.427 871.574 213.386C887.553 192.348 902.325 172.777 926.753 172.174C948.164 171.57 968.08 186.917 988.283 218.817C1081.77 367.456 1110.11 553.083 1066.68 728.823C1040.76 833.807 988.887 931.003 916.206 1011.04C861.917 1071.51 797.973 1122.38 726.814 1161.78C719.285 1166 711.123 1170.2 701.783 1174.71C667.411 1191.26 631.831 1205.12 595.333 1215.64C558.834 1226.15 521.444 1233.68 483.451 1238.2C444.251 1243.31 404.447 1245.44 364.931 1244.52C336.594 1243.63 308.228 1240.61 280.495 1237.31C270.551 1236.1 260.579 1235.21 250.635 1234C242.502 1233.08 234.053 1232.48 225.919 1231.59L209.912 1230.09C200.284 1229.17 187.294 1227.96 174.333 1225.87C153.238 1222.85 132.431 1217.73 112.515 1209.92C87.4828 1200 61.8474 1186.75 29.5733 1166.61C8.76616 1153.36 -11.1214 1138.9 -29.5144 1122.66C-37.9637 1115.45 -46.0969 1107.63 -53.9427 1099.5C-78.6872 1074.53 -100.385 1046.53 -118.491 1016.76C-136.568 986.958 -151.052 955.374 -161.6 922.266C-177.004 874.444 -187.551 806.131 -153.466 751.986ZM-65.7258 1008.94C-48.8272 1036.91 -28.9109 1062.8 -6.00578 1085.96C1.23649 1093.47 9.08229 1100.71 16.9281 1107.32C34.4015 1122.38 53.1107 1135.91 72.7108 1147.93C97.4265 1163.59 123.665 1176.52 150.824 1187.04C169.82 1193.97 189.708 1198.79 209.624 1201.21C219.281 1202.39 229.512 1203.59 242.789 1204.51L261.498 1206.01C267.821 1206.61 274.144 1206.9 280.495 1207.5L303.4 1209.31C330.559 1211.73 358.608 1214.14 386.629 1214.14H386.945C423.444 1213.83 460.23 1211.12 496.412 1205.72C530.497 1200.89 564.266 1193.68 597.431 1183.74C630.624 1173.82 662.582 1160.89 693.333 1145.54C702.099 1141.03 709.312 1137.41 715.951 1133.5C778.372 1098.01 836.885 1050.76 889.651 992.677C956.9 918.358 1003.95 828.088 1025.96 730.317C1061.86 572.941 1035.01 408.668 952.388 279.888C933.392 250.114 914.079 236.262 893.588 236.262C869.447 236.578 854.991 255.23 840.507 273.278C832.977 282.906 824.815 292.821 815.475 300.35C793.748 317.191 759.692 320.525 724.113 309.374C685.487 297.333 650.512 280.808 617.95 264.857C537.423 225.427 424.335 177.893 305.527 177.893C278.081 177.893 250.635 180.594 223.505 186.026C191.231 192.636 160.164 203.471 130.908 218.501C80.2405 244.395 46.7881 277.187 31.7 315.697C13.3069 362.341 23.5668 414.675 33.1945 465.227C38.0226 489.598 42.8508 514.888 44.374 539.259C47.3629 583.173 40.1493 616.884 21.1527 645.163C6.66819 667.12 -15.0586 684.593 -35.8658 701.118C-57.5639 718.592 -80.1816 736.927 -95.5571 760.694C-128.435 812.166 -119.094 876.542 -105.53 921.088C-95.2697 951.753 -82.3083 981.239 -65.7258 1008.94ZM-89.838 763.712C-75.066 740.548 -53.0518 722.787 -31.6411 705.63C-10.2304 688.502 11.4964 671.028 26.5557 648.181C46.1846 618.694 53.7142 583.776 50.6966 538.656C48.886 513.969 44.0579 488.391 39.2297 464.02C29.2859 411.973 19.6296 362.628 37.4191 317.795C51.9037 280.808 84.4651 249.195 133.925 223.933C162.578 209.19 193.042 198.355 224.712 191.745C370.362 161.655 517.536 222.122 615.536 270.26C648.098 286.211 683.39 302.764 722.302 315.094C735.867 319.318 750.036 321.704 764.204 321.704C785.615 321.704 804.927 315.984 819.096 305.178C829.04 297.333 837.202 287.102 845.019 277.187C859.216 259.426 872.177 242.872 893.272 242.585H894.191C912.268 242.585 929.77 255.833 947.273 283.509C1028.98 411.082 1055.53 573.545 1019.93 729.398C998.227 825.99 951.785 915.369 885.426 989.085C833.264 1046.53 775.067 1093.78 713.25 1128.67C706.611 1132.29 699.685 1136.2 690.919 1140.71C660.456 1156.06 628.498 1168.7 595.936 1178.62C563.059 1188.56 529.577 1195.78 495.809 1200.29C459.914 1205.72 423.731 1208.42 387.232 1208.71H386.945C359.212 1208.71 331.45 1206.32 304.32 1203.91L281.702 1202.1L262.705 1200.61C256.354 1200.29 250.348 1199.69 243.996 1199.08C230.719 1197.87 220.775 1196.98 210.831 1195.78C191.231 1193.36 172.235 1188.56 153.842 1181.92C126.999 1171.41 101.048 1158.47 76.6193 1143.13C57.0192 1131.4 38.6262 1117.86 21.4401 1103.12C13.5943 1096.48 6.06467 1089.27 -1.1776 1082.06C-23.7953 1059.18 -43.6828 1033.92 -60.2941 1006.21C-76.5605 979.141 -89.5218 949.971 -98.8908 919.565C-112.14 875.651 -121.192 813.345 -89.838 763.712ZM-7.50022 997.793C7.55911 1023.37 25.6648 1046.85 46.7881 1067.6C53.7142 1074.53 60.6404 1080.85 68.1988 1087.17C84.4651 1100.71 101.651 1113.04 120.044 1123.87C142.978 1137.7 167.406 1149.13 192.726 1158.16C210.228 1164.19 228.305 1168.1 246.726 1170.2C255.751 1171.12 265.407 1172.01 277.161 1172.9C284.404 1173.22 291.962 1173.82 299.175 1174.11L311.849 1174.71L326.018 1175.63C353.176 1177.13 381.226 1178.94 408.959 1178.02C442.44 1176.84 475.921 1173.22 509.086 1167.5C539.234 1162.67 569.094 1155.77 598.35 1146.43C627.607 1137.12 655.656 1125.37 682.786 1111.23C690.632 1107.03 696.954 1103.7 702.702 1100.39C757.881 1067.92 810.647 1023.97 858.9 970.404C919.827 902.723 961.125 819.983 978.627 730.605C1006.36 593.404 981.645 452.61 910.774 344.293C894.191 319.002 877.609 306.673 859.819 306.673C838.983 306.673 826.022 322.02 813.664 336.763C807.342 344.896 800.099 352.11 792.254 358.72C765.727 378.291 728.625 369.87 713.853 365.646C679.481 355.702 646 343.373 613.122 328.946C522.335 288.021 421.633 242.872 317.597 242.872C295.87 242.872 274.144 244.999 252.733 249.195C223.189 255.23 194.852 265.748 168.297 280.204C137.546 297.333 97.4265 327.135 82.051 372.859C68.4862 413.496 77.539 458.33 86.2757 501.352C91.1039 525.407 96.2195 550.094 97.4265 574.148C99.5532 612.975 92.3109 642.749 74.5214 668.643C61.2439 687.898 41.9599 703.532 23.2507 718.592C3.33444 734.513 -17.1566 751.067 -31.0376 772.736C-61.5011 819.667 -53.9427 877.749 -42.5045 918.358C-34.0552 945.746 -22.2722 972.818 -7.50022 997.793ZM-25.6059 775.438C-12.041 754.688 7.87524 738.45 27.4754 722.5C46.472 707.153 66.0721 691.491 79.9531 671.344C98.6335 644.272 106.192 612.975 104.065 572.941C102.858 548.571 97.7426 523.596 92.5983 499.225C83.5742 454.708 74.8088 412.893 88.0863 373.779C102.858 330.153 141.771 301.241 171.631 284.716C197.554 270.26 225.316 260.029 254.256 254.023C378.812 229.336 502.132 284.716 610.708 333.745C643.586 348.488 677.354 360.818 711.726 371.049C723.797 374.957 736.471 376.768 749.116 377.084C767.222 377.084 783.201 372.572 795.559 363.548C804.008 356.909 811.566 349.092 818.176 340.671C830.247 326.216 841.714 312.679 859.819 312.679C875.482 312.679 890.57 324.118 905.946 347.598C976.213 454.708 1000.64 593.72 973.195 729.398C955.693 817.569 914.682 899.418 854.675 966.208C806.738 1019.17 754.548 1062.48 699.685 1094.99C694.253 1098.29 687.902 1101.6 680.085 1105.82C653.242 1119.96 625.193 1131.4 596.54 1140.71C567.571 1149.74 538.343 1156.66 508.167 1161.49C475.318 1167.18 442.124 1170.8 408.672 1172.01C381.226 1172.9 353.464 1171.12 326.334 1169.6L312.166 1168.7L299.492 1168.1C292.249 1167.78 284.72 1167.5 277.477 1166.89C265.723 1166.29 256.067 1165.4 247.33 1164.19C229.224 1162.38 211.722 1158.16 194.536 1152.44C169.82 1143.41 145.68 1132 123.062 1118.44C104.985 1107.92 88.0863 1095.88 72.1073 1082.34C64.865 1076.34 57.9389 1069.7 50.984 1063.09C30.493 1042.63 12.3873 1019.46 -2.38465 994.488C-17.1566 969.829 -28.6235 943.332 -36.4693 915.656C-47.6201 876.829 -54.8624 820.587 -25.6059 775.438ZM50.6966 986.958C63.9741 1010.12 80.5566 1031.19 99.5532 1049.84C105.876 1055.87 112.515 1061.88 119.153 1067.31C133.925 1079.64 150.22 1090.48 166.803 1099.79C187.897 1111.83 210.228 1121.77 233.449 1129.27C249.428 1134.39 266.01 1137.7 282.909 1139.22C291.358 1140.11 300.095 1140.71 310.642 1141.03C319.092 1141.32 327.828 1141.63 336.278 1141.92L345.331 1142.24C373.064 1143.13 402.033 1143.73 430.37 1141.92C460.833 1139.51 490.981 1135.31 520.841 1128.99C547.08 1124.16 573.002 1117.55 598.35 1108.81C623.67 1100.1 648.098 1089.27 671.635 1076.34C676.751 1073.61 682.786 1070.01 688.821 1066.39C736.758 1036.3 783.517 996.586 827.833 947.557C880.914 888.871 917.7 811.85 931.581 730.605C951.469 614.182 928.851 496.84 869.16 408.668C860.107 395.42 845.938 377.371 826.022 377.084H825.131C808.232 377.084 797.082 388.81 786.534 400.248C781.103 406.57 775.067 412.289 768.429 417.089C753.053 427.636 729.229 429.131 702.99 421.601L684.28 416.485C658.358 409.875 633.038 401.455 608.007 391.827C590.792 384.901 573.002 377.084 555.816 369.87C483.135 338.573 408.356 306.357 330.846 306.357C314.264 306.357 297.968 307.88 281.702 310.898C254.544 316.301 228.908 326.216 205.4 340.671C178.27 356.909 143.582 385.504 132.115 428.843C122.774 463.445 130.908 498.938 139.041 536.845C144.185 560.009 149.617 584.092 150.508 607.86C151.715 640.938 144.185 668.327 127.603 691.203C115.532 708.044 98.6336 721.897 82.051 735.117C63.9741 749.572 45.581 764.603 32.5909 784.174C4.54149 826.593 10.2893 878.353 19.9457 914.765C27.1592 939.74 37.4191 964.11 50.6966 986.958ZM38.3388 787.479C50.6966 768.828 68.8023 754.084 86.2757 739.945C102.858 726.409 120.36 712.556 132.718 695.112C150.22 671.028 158.066 642.461 156.859 608.147C155.939 584.092 150.508 559.721 145.392 535.954C137.259 498.938 129.413 464.02 138.15 430.941C149.301 389.729 182.782 362.341 208.705 346.39C231.638 332.251 256.958 322.623 283.197 317.508C376.398 299.747 466.552 338.573 553.718 375.877C570.904 383.09 588.694 390.907 605.88 397.834C630.912 407.461 656.547 415.882 682.786 422.521L701.179 427.924C728.912 435.741 754.548 433.959 771.446 422.521C778.372 417.405 785.011 411.37 790.759 404.76C800.99 393.638 810.963 383.09 825.735 383.407C838.696 383.694 850.766 393.034 864.015 412.289C923.132 498.938 945.462 614.786 925.862 729.714C911.981 810.04 875.798 885.882 823.608 943.935C779.58 992.677 733.453 1032.11 685.804 1061.59C679.768 1065.19 673.733 1068.52 668.905 1071.22C645.684 1083.84 621.572 1094.67 596.827 1103.12C571.795 1111.54 546.16 1118.15 519.95 1122.95C490.377 1128.99 460.23 1133.18 430.082 1135.6C402.033 1137.41 374.587 1136.8 345.331 1135.91L336.278 1135.6C327.828 1135.31 319.379 1135.31 310.642 1134.71C300.095 1134.39 291.358 1133.79 283.197 1132.9C266.93 1131.4 250.635 1128.07 235.26 1123.27C212.326 1115.74 190.311 1106.11 169.504 1094.07C152.922 1084.76 137.259 1074.21 122.774 1062.2C116.136 1056.77 109.497 1050.76 103.462 1045.04C84.7813 1026.68 68.8023 1005.93 55.8122 983.366C42.8508 961.093 32.9071 937.325 26.2683 912.351C16.9281 878.037 11.4964 827.8 38.3388 787.479ZM108.893 975.836C120.648 996.298 135.132 1015.24 152.031 1031.5C157.75 1036.91 163.785 1042.34 170.108 1047.14C183.673 1057.97 198.157 1067.6 213.533 1075.73C232.845 1086.25 253.337 1094.39 274.46 1100.71C289.232 1104.62 304.32 1107.32 319.379 1108.21C327.225 1108.81 335.387 1109.13 344.411 1109.42C353.464 1109.73 363.436 1109.42 373.064 1109.42C399.619 1109.42 426.145 1108.21 452.384 1105.51C479.514 1101.91 506.672 1097.09 533.515 1090.48C555.816 1085.65 577.831 1079.33 599.241 1071.22C620.652 1063.09 641.172 1053.17 661.059 1041.73C665.6 1039.03 670.716 1036.02 675.544 1032.71C716.871 1005.32 756.674 970.117 797.369 924.68C844.415 872.317 875.482 803.43 885.139 730.317C897.812 633.437 877.609 541.961 828.149 472.469C820.59 461.922 808.836 447.782 792.857 446.891C778.689 445.972 769.348 454.708 760.296 463.445C755.755 467.957 750.927 471.866 745.524 475.458C728.625 485.402 705.404 481.177 693.046 477.872C680.975 474.567 668.905 471.866 657.467 469.452C639.361 465.831 621.572 461.318 603.782 455.312C577.227 445.972 550.385 433.959 524.462 422.204C467.759 396.627 409.247 370.445 348.032 370.445C335.99 370.445 323.92 371.652 311.849 373.779C287.421 378.291 263.913 387.919 243.393 402.058C210.228 424.302 189.104 453.789 183.069 485.689C177.666 514.285 184.88 543.168 192.726 573.545C198.473 596.134 204.193 619.298 204.509 642.145C204.796 670.137 197.266 693.905 181.575 714.367C170.711 728.507 156.256 740.548 142.058 751.986C126.079 764.919 109.21 778.455 97.7426 795.613C72.1073 833.52 76.0158 879.244 83.5742 911.144C89.0059 934.02 97.4265 955.661 108.893 975.836ZM102.255 799.205C113.434 782.68 129.701 769.431 145.392 756.786C159.877 745.06 174.649 732.731 186.087 718.275C202.698 696.606 210.515 671.632 210.228 642.461C209.912 618.694 203.905 595.214 198.157 572.338C190.628 542.248 183.673 514.285 188.817 486.896C194.536 456.806 214.74 428.527 246.41 407.174C266.327 393.638 288.944 384.297 312.453 379.785C385.134 366.537 454.482 397.834 521.444 427.924C547.367 439.649 574.526 452.007 601.052 461.031C618.841 466.75 636.947 471.55 655.34 475.171C666.807 477.585 678.877 480.286 690.632 483.591C703.881 487.212 728.912 491.408 747.622 480.574C753.341 476.981 758.772 472.757 763.313 467.957C771.734 459.824 779.896 452.294 791.65 453.214C804.927 454.105 815.762 466.75 822.401 476.378C870.97 544.662 890.57 634.644 878.212 730.001C868.843 801.935 838.093 869.932 791.966 921.375C751.53 966.208 712.33 1001.1 671.319 1028.2C666.491 1031.5 661.663 1034.21 657.151 1036.91C637.838 1048.34 617.347 1057.97 596.224 1066.11C575.129 1073.92 553.402 1080.25 531.388 1085.04C504.862 1091.68 478.019 1096.48 451.177 1100.1C424.938 1102.81 398.699 1104.01 372.46 1104.01C362.833 1104.01 353.464 1104.01 344.124 1104.01C334.783 1104.01 326.938 1103.41 319.379 1102.81C304.607 1101.91 290.151 1099.18 275.667 1095.28C255.147 1089.27 235.26 1081.14 216.263 1070.91C201.175 1063.09 186.69 1053.78 173.442 1042.94C167.406 1038.11 161.371 1033 155.939 1027.6C123.062 995.379 99.5532 954.77 88.6898 910.253C81.4475 879.244 77.8264 835.014 102.255 799.205ZM167.09 965.001C177.063 983.049 189.708 999.603 204.509 1013.74C209.624 1018.57 215.056 1023.08 220.775 1027.6C233.133 1037.22 246.41 1045.33 260.291 1051.97C277.765 1060.67 296.474 1067.31 315.471 1072.11C328.748 1075.13 341.997 1076.94 355.59 1077.54C362.517 1077.83 370.046 1077.83 377.892 1077.83C385.45 1077.83 393.584 1077.54 403.527 1076.94C427.352 1075.73 450.89 1073.32 474.111 1069.41C498.223 1065.19 521.732 1058.86 545.556 1051.97C563.978 1047.14 581.768 1040.82 599.557 1033.6C617.031 1026.07 633.929 1017.36 649.908 1007.13C653.846 1004.72 657.754 1002.02 661.663 999.316C695.46 974.945 729.516 943.332 766.015 902.723C807.342 856.683 832.977 795.296 837.489 730.605C842.921 655.998 824.528 587.397 786.218 536.845C780.183 529.028 770.843 518.481 758.772 517.302C747.622 516.095 740.092 521.498 732.85 526.614C729.229 529.315 725.607 531.729 721.699 533.54C709.628 538.943 693.333 536.845 681.866 533.827C668.905 530.839 655.656 528.424 642.379 526.93C627.607 525.407 612.806 522.418 598.35 518.797C567.571 509.773 537.423 494.713 508.483 480.286C462.931 457.41 416.201 433.959 366.425 433.959C357.688 433.959 349.239 434.534 340.79 436.057C318.776 439.965 297.968 449.277 280.179 462.842C252.446 483.879 235.26 512.762 232.845 541.961C231.035 564.837 237.961 588.288 244.6 610.877C250.922 632.23 257.561 654.187 256.958 676.144C256.67 698.417 248.824 720.086 234.34 737.243C225 748.681 212.642 758.884 200.888 768.54C186.69 780.266 171.918 791.991 161.371 807.338C143.265 833.203 137.546 869.012 145.996 907.839C149.904 927.985 157.146 947.24 167.09 965.001ZM166.199 810.959C176.143 796.503 190.628 784.778 204.509 773.34C216.55 763.425 229.224 753.194 238.881 741.439C254.256 723.391 262.705 700.515 262.993 676.747C263.309 653.9 256.67 631.311 250.348 609.67C243.393 586.506 237.07 564.837 238.881 542.851C241.295 515.176 257.561 488.103 283.8 468.245C300.699 454.996 320.586 446.288 341.709 442.667C399.619 433.039 451.177 458.904 505.753 486.293C535.009 501.036 565.473 516.383 596.827 525.119C611.628 529.028 626.687 531.729 641.775 533.54C655.053 535.034 668.014 537.449 680.659 540.466C693.046 543.455 710.835 545.869 724.4 539.863C728.625 537.736 732.85 535.351 736.758 532.333C743.713 527.217 749.72 522.993 758.485 523.912C768.141 525.119 776.562 534.431 781.706 541.357C819.383 590.415 837.202 657.808 831.77 730.921C827.229 794.089 802.197 853.982 761.79 899.418C725.607 939.74 691.839 971.324 658.358 995.379C654.449 998.109 650.512 1000.81 646.891 1003.22C631.228 1013.14 614.617 1021.88 597.431 1029.09C580.245 1036.3 562.455 1042.34 544.349 1047.14C520.553 1053.78 497.332 1060.07 473.507 1064.3C450.286 1068.2 427.065 1070.62 403.527 1071.82C393.584 1072.43 385.45 1072.72 378.208 1072.72C370.362 1072.72 363.12 1072.72 356.194 1072.43C342.917 1071.82 329.955 1070.01 317.281 1067C298.572 1062.48 280.495 1055.87 263.309 1047.45C249.744 1040.82 236.754 1032.71 224.712 1023.37C219.281 1019.17 213.849 1014.63 209.021 1009.83C194.536 995.982 182.178 980.061 172.522 962.587C162.866 945.459 155.939 926.778 151.715 907.523C143.582 869.616 148.697 835.618 166.199 810.959ZM225.316 953.879C233.449 969.513 244.312 983.653 257.274 995.695C261.786 999.891 266.614 1003.83 271.758 1007.74C282.909 1015.84 294.663 1022.77 307.337 1028.2C323.316 1035.1 339.899 1040.21 356.798 1043.55C368.552 1045.64 380.306 1046.85 392.377 1046.85C398.699 1046.85 405.338 1046.85 411.977 1046.53C418.615 1046.25 426.461 1045.64 434.278 1044.72C455.086 1042.63 475.605 1038.72 496.125 1033.6C516.616 1028.49 537.136 1021.27 557.943 1014.06C572.399 1009.23 586.28 1003.51 599.845 996.586C613.41 989.688 626.4 981.842 638.758 973.134C641.459 971.008 644.793 968.91 647.81 966.208C681.866 938.533 712.042 906.028 734.66 880.451C771.13 839.239 790.759 785.669 790.156 730.605C789.236 679.765 772.941 633.725 744.317 601.25C739.488 595.818 733.137 589.495 725.291 587.685C718.681 586.506 712.042 587.081 706.007 589.811C703.593 590.702 700.892 591.593 698.478 592.197C691.839 593.72 682.786 593.116 671.032 590.415C657.754 588.001 644.477 586.794 631.228 586.794C618.238 586.506 605.593 585.299 592.919 583.173C561.248 576.275 531.101 558.802 502.448 541.673C465.949 520.291 428.272 498.335 386.945 498.335C381.226 498.335 375.478 498.622 369.759 499.542C350.159 502.847 331.766 511.583 316.994 524.803C294.376 544.978 281.386 572.654 282.909 599.439C283.8 616.884 290.151 634.041 296.474 650.882C303.716 670.425 311.246 690.6 310.039 711.062C308.832 729.11 301.59 745.348 287.421 761.011C278.972 769.719 269.948 777.852 260.291 785.381C247.617 795.613 234.656 806.447 225 819.38C208.417 841.653 202.698 872.03 208.101 904.821C211.435 922.266 217.154 938.82 225.316 953.879ZM230.115 822.972C239.168 810.643 251.842 800.125 264.2 789.893C274.144 782.076 283.513 773.943 291.962 764.919C307.021 748.365 314.867 730.921 316.074 711.349C317.597 689.393 309.752 668.643 302.193 648.784C295.87 631.627 289.835 615.677 288.944 599.123C287.737 574.148 299.779 548.283 320.902 529.315C334.783 516.699 351.969 508.25 370.65 505.261C416.805 498.018 456.896 521.814 499.43 546.789C528.687 563.917 559.15 581.678 591.712 588.604C604.673 591.018 617.95 592.197 630.912 592.513C643.873 592.8 656.863 594.007 669.825 596.709C676.463 598.232 683.39 599.123 690.316 599.439C693.333 599.439 696.667 599.123 699.685 598.519C702.386 597.916 705.404 597.025 707.818 596.134C713.25 594.323 717.762 592.8 723.797 594.007C729.832 595.214 735.551 600.933 739.776 605.762C767.538 637.03 783.201 681.576 784.12 731.208C784.724 784.778 765.411 836.537 730.119 876.829C707.818 902.12 677.67 934.308 643.873 961.696C640.856 964.11 637.838 966.496 635.136 968.306C623.066 977.043 610.421 984.86 597.143 991.47C583.866 998.109 569.985 1003.83 555.816 1008.63C535.009 1015.84 514.806 1022.77 494.602 1027.88C474.714 1033 454.195 1036.62 433.675 1038.72C425.858 1039.61 418.616 1040.21 411.661 1040.53C404.734 1040.82 398.412 1041.13 392.377 1040.82C380.91 1040.82 369.155 1039.61 357.688 1037.51C341.106 1034.49 324.811 1029.38 309.435 1022.48C297.365 1017.05 285.611 1010.44 275.063 1002.62C270.235 999 265.407 995.091 261.182 991.183C248.824 979.744 238.277 965.892 230.431 951.149C222.586 936.406 216.866 920.484 214.136 903.931C209.021 872.634 214.452 844.038 230.115 822.972ZM310.039 977.647C313.976 981.239 318.488 984.573 322.713 987.562C355.274 1010.12 399.015 1019.75 446.061 1014.63C491.9 1009.83 536.82 991.183 570.588 975.232C594.126 964.714 615.824 950.258 634.533 932.21C659.565 908.126 683.073 881.37 703.881 857.574C737.074 819.983 751.846 772.449 743.11 730.001C734.344 686.978 700.288 652.693 660.456 646.37C647.81 644.876 635.136 644.876 622.462 646.054C611.024 647.261 599.241 647.261 587.803 646.054C556.736 642.145 529.577 622.287 503.051 603.347C474.111 582.282 444.251 560.928 409.563 560.928C405.942 560.928 402.32 561.216 398.699 561.532C354.383 569.349 324.811 611.165 332.657 655.394C332.657 655.682 332.657 655.682 332.657 655.998C335.387 668.643 341.709 680.656 347.429 692.41C356.194 710.142 364.615 726.696 362.517 744.744C359.499 768.224 340.502 783.571 320.586 800.125C309.148 809.436 297.365 819.064 288.341 830.502C253.94 876.255 271.442 943.648 310.039 977.647ZM293.773 834.727C302.193 823.892 313.66 814.552 324.811 805.24C345.014 788.974 365.534 771.845 368.839 745.951C371.253 726.092 362.229 707.757 353.176 689.996C347.429 678.558 341.393 666.832 338.692 654.791C331.45 613.866 358.608 575.068 399.619 567.538C436.405 562.71 467.156 584.696 499.43 608.147C526.56 627.718 554.322 647.864 586.883 651.773C591.999 652.377 597.143 652.693 602.259 652.693C609.214 652.693 616.14 652.377 622.779 651.773C634.849 650.566 647.207 650.566 659.565 652.089C696.351 657.808 728.912 690.887 737.362 730.921C745.811 770.926 731.326 816.966 699.368 853.062C678.561 876.542 655.053 903.327 630.308 927.094C611.915 944.539 590.792 958.679 567.887 968.91C534.406 984.573 490.09 1002.91 445.142 1007.74C399.303 1012.54 357.085 1003.51 325.73 981.842C321.506 978.854 317.281 975.836 313.66 972.215C277.477 940.918 260.579 877.433 293.773 834.727Z" fill="white"/>
</g>
</g>
</g>
</svg>
