<svg width="20" height="25" viewBox="0 0 26 33" fill="none" xmlns="http://www.w3.org/2000/svg">
<path d="M25.314 29.5625V33H0.665508V29.5625C0.665508 26.2693 3.24675 23.595 6.48117 23.4107L10.251 29.5625L12.9897 25.4375L15.7284 29.5625L19.4983 23.4107C22.7327 23.595 25.314 26.2707 25.314 29.5625ZM5.96766 5.53702C8.06141 3.56664 10.8029 2.59314 13.6771 2.77189C19.0505 3.12114 23.2613 7.81678 23.2613 13.4612C23.2613 15.8949 21.2908 17.8736 18.867 17.8736H15.5723C15.2382 16.7337 14.2002 15.8949 12.9569 15.8949C11.4437 15.8949 10.2181 17.1256 10.2181 18.6449C10.2181 20.1643 11.4437 21.395 12.9569 21.395C13.6936 21.395 14.3605 21.0993 14.8521 20.6236H18.867C22.7998 20.6236 26 17.4102 26 13.4612C25.9986 6.37165 20.6636 0.470128 13.8524 0.0287509C10.2045 -0.209125 6.74409 1.03525 4.09438 3.53226C1.64734 5.8354 0.176647 9.02678 0 12.3763H2.74282C2.91126 9.75966 4.04098 7.35065 5.96766 5.53702ZM17.2471 15.1401C17.2786 15.1332 17.3196 15.1249 17.3196 15.1249H19.108C19.7941 15.1249 20.3938 14.6189 20.4733 13.9342C20.5664 13.127 20.5322 12.2814 20.3487 11.4165C19.7407 8.55791 17.4306 6.25202 14.5796 5.66352C9.73614 4.66389 5.461 8.37228 5.461 13.0624C5.461 15.0823 6.25386 16.9193 7.54242 18.2764C7.69442 15.3752 10.0634 13.0624 12.9911 13.0624C14.7206 13.0624 16.2433 13.8833 17.2471 15.1401Z" fill="#333333"/>
</svg>
