<svg width="40" height="40" viewBox="0 0 100 90" fill="none" xmlns="http://www.w3.org/2000/svg">
<path fill-rule="evenodd" clip-rule="evenodd" d="M73.6839 66.3163H55.2627C53.8101 66.3163 52.6311 67.3773 52.6311 68.6847C52.6311 69.9921 53.8101 71.0531 55.2627 71.0531H73.6839V87.6319C73.6839 88.9392 74.8629 90.0003 76.3155 90.0003C77.7682 90.0003 78.9471 88.9392 78.9471 87.6319V71.0531H97.3684C98.821 71.0531 100 69.9921 100 68.6847C100 67.3773 98.821 66.3163 97.3684 66.3163H78.9471V49.7375C78.9471 48.4302 77.7682 47.3691 76.3155 47.3691C74.8629 47.3691 73.6839 48.4302 73.6839 49.7375V66.3163Z" fill="url(#paint0_linear_1239_151)"/>
<path d="M39.4741 47.3691C43.832 47.3691 47.3689 50.5523 47.3689 54.4743V82.8951C47.3689 86.8171 43.832 90.0003 39.4741 90.0003H7.89481C3.53688 90.0003 0 86.8171 0 82.8951V54.4743C0 50.5523 3.53688 47.3691 7.89481 47.3691H39.4741Z" fill="url(#paint1_linear_1239_151)"/>
<path d="M92.1052 0C96.4631 0 100 3.18312 100 7.10519V35.5259C100 39.448 96.4631 42.6311 92.1052 42.6311H60.5259C56.168 42.6311 52.6311 39.448 52.6311 35.5259V7.10519C52.6311 3.18312 56.168 0 60.5259 0H92.1052Z" fill="url(#paint2_linear_1239_151)"/>
<path d="M39.4741 0C43.832 0 47.3689 3.18312 47.3689 7.10519V35.5259C47.3689 39.448 43.832 42.6311 39.4741 42.6311H7.89481C3.53688 42.6311 0 39.448 0 35.5259V7.10519C0 3.18312 3.53688 0 7.89481 0H39.4741Z" fill="url(#paint3_linear_1239_151)"/>
<defs>
<linearGradient id="paint0_linear_1239_151" x1="-10.5264" y1="43.2424" x2="110.527" y2="43.2424" gradientUnits="userSpaceOnUse">
<stop/>
<stop offset="1" stop-color="#848586"/>
</linearGradient>
<linearGradient id="paint1_linear_1239_151" x1="-10.5264" y1="43.2424" x2="110.527" y2="43.2424" gradientUnits="userSpaceOnUse">
<stop/>
<stop offset="1" stop-color="#848586"/>
</linearGradient>
<linearGradient id="paint2_linear_1239_151" x1="-10.5264" y1="43.2422" x2="110.527" y2="43.2422" gradientUnits="userSpaceOnUse">
<stop/>
<stop offset="1" stop-color="#848586"/>
</linearGradient>
<linearGradient id="paint3_linear_1239_151" x1="-10.5264" y1="43.2422" x2="110.527" y2="43.2422" gradientUnits="userSpaceOnUse">
<stop stop-color="#2AC3DF"/>
<stop offset="1" stop-color="#848586"/>
</linearGradient>
</defs>
</svg>
