<svg width="188" height="188" viewBox="0 0 188 188" fill="none" xmlns="http://www.w3.org/2000/svg">
<path d="M86.9334 97.9847C84.7557 95.8057 82.17 94.0771 79.3241 92.8977C76.4781 91.7184 73.4277 91.1113 70.3471 91.1113C67.2664 91.1113 64.216 91.7184 61.37 92.8977C58.5241 94.0771 55.9384 95.8057 53.7607 97.9847L0.296875 151.449C1.01958 161.251 5.41587 170.419 12.6066 177.12C19.7974 183.821 29.2526 187.561 39.0816 187.591H148.511C156.168 187.59 163.655 185.325 170.029 181.08L86.9334 97.9847Z" fill="#E7E7E7"/>
<path d="M140.694 62.531C149.328 62.531 156.327 55.532 156.327 46.8983C156.327 38.2646 149.328 31.2656 140.694 31.2656C132.061 31.2656 125.062 38.2646 125.062 46.8983C125.062 55.532 132.061 62.531 140.694 62.531Z" fill="#E7E7E7"/>
<path d="M148.511 0H39.0818C28.7205 0.0124113 18.7871 4.13393 11.4605 11.4605C4.13393 18.7871 0.0124113 28.7205 0 39.0818L0 129.642L42.7086 86.9335C46.3378 83.3033 50.6466 80.4237 55.3889 78.459C60.1312 76.4943 65.214 75.4831 70.3472 75.4831C75.4804 75.4831 80.5632 76.4943 85.3055 78.459C90.0478 80.4237 94.3566 83.3033 97.9858 86.9335L181.081 170.029C185.326 163.655 187.591 156.169 187.593 148.511V39.0818C187.58 28.7205 183.459 18.7871 176.132 11.4605C168.805 4.13393 158.872 0.0124113 148.511 0ZM140.694 78.1636C134.511 78.1636 128.466 76.3299 123.324 72.8944C118.183 69.4589 114.175 64.5759 111.809 58.8629C109.442 53.1499 108.823 46.8635 110.03 40.7986C111.236 34.7337 114.214 29.1627 118.586 24.7901C122.959 20.4176 128.53 17.4399 134.595 16.2335C140.66 15.0271 146.946 15.6462 152.659 18.0127C158.372 20.3791 163.255 24.3864 166.691 29.528C170.126 34.6696 171.96 40.7144 171.96 46.8981C171.96 55.1902 168.666 63.1427 162.802 69.0061C156.939 74.8695 148.986 78.1636 140.694 78.1636Z" fill="#E7E7E7"/>
</svg>
