<svg width="195" height="195" viewBox="0 0 195 195" fill="none" xmlns="http://www.w3.org/2000/svg">
<path d="M90.3679 101.856C88.1043 99.5906 85.4165 97.7938 82.4582 96.5679C79.4999 95.3419 76.329 94.7109 73.1267 94.7109C69.9244 94.7109 66.7535 95.3419 63.7952 96.5679C60.8369 97.7938 58.1491 99.5906 55.8855 101.856L0.310547 157.431C1.06179 167.62 5.63167 177.151 13.1064 184.116C20.5811 191.082 30.4096 194.969 40.6267 195.001H154.377C162.337 194.999 170.119 192.644 176.745 188.232L90.3679 101.856Z" fill="#A6A6A6"/>
<path d="M146.25 65C155.225 65 162.5 57.7246 162.5 48.75C162.5 39.7754 155.225 32.5 146.25 32.5C137.275 32.5 130 39.7754 130 48.75C130 57.7246 137.275 65 146.25 65Z" fill="#A6A6A6"/>
<path d="M154.375 0H40.6249C29.8545 0.0129013 19.5289 4.29716 11.913 11.913C4.29716 19.5289 0.0129013 29.8545 0 40.6249L0 134.761L44.3949 90.3661C48.1674 86.5926 52.6464 83.5992 57.5759 81.557C62.5055 79.5147 67.789 78.4636 73.1249 78.4636C78.4607 78.4636 83.7443 79.5147 88.6739 81.557C93.6034 83.5992 98.0823 86.5926 101.855 90.3661L188.232 176.743C192.643 170.117 194.998 162.335 195 154.375V40.6249C194.987 29.8545 190.703 19.5289 183.087 11.913C175.471 4.29716 165.145 0.0129013 154.375 0ZM146.25 81.2499C139.822 81.2499 133.538 79.3438 128.194 75.7726C122.849 72.2015 118.684 67.1257 116.224 61.1871C113.764 55.2485 113.12 48.7139 114.374 42.4095C115.628 36.1051 118.724 30.3142 123.269 25.769C127.814 21.2238 133.605 18.1285 139.909 16.8745C146.214 15.6204 152.748 16.264 158.687 18.7239C164.626 21.1837 169.701 25.3493 173.272 30.6939C176.844 36.0385 178.75 42.322 178.75 48.7499C178.75 57.3694 175.326 65.6359 169.231 71.7309C163.136 77.8258 154.869 81.2499 146.25 81.2499Z" fill="#A6A6A6"/>
</svg>
