<svg width="182" height="32" viewBox="0 0 8957 1507" fill="none" xmlns="http://www.w3.org/2000/svg">
<rect x="79.7158" width="1041" height="234" fill="#FFFFFF"/>
<path d="M79.7162 733L1120.72 234.004L1120.72 442.504L79.7185 932.006L79.7162 733Z" fill="#2AC3DF"/>
<rect x="1425.72" y="234" width="932" height="234" transform="rotate(90 1425.72 234)" fill="#FFFFFF"/>
<path d="M2650.72 234L2921.72 1166L2687.72 1166L2416.72 234L2650.72 234Z" fill="#FFFFFF"/>
<path d="M8170.72 242L8441.72 1174L8207.72 1174L7936.72 242L8170.72 242Z" fill="#FFFFFF"/>
<path d="M8722.72 242L8340.72 1507L8574.72 1507L8956.72 242L8722.72 242Z" fill="#2AC3DF"/>
<path d="M3192.72 234L2921.72 1166L3155.72 1166L3426.72 234L3192.72 234Z" fill="#2AC3DF"/>
<rect width="169" height="234" transform="matrix(4.37114e-08 -1 -1 -4.37114e-08 1425.72 169)" fill="#2AC3DF"/>
<rect x="1757.72" y="234" width="932" height="234" transform="rotate(90 1757.72 234)" fill="#FFFFFF"/>
<rect x="4690.72" y="233.541" width="932" height="234" transform="rotate(90 4690.72 233.541)" fill="#FFFFFF"/>
<path d="M7486.72 233.996L7486.72 397.496C7536.72 257.5 7739.72 216.5 7923.22 243.996L7923.22 466.996C7691.22 466.996 7486.72 488 7486.72 647.496L7486.72 699.996L7486.72 1166L7252.72 1166L7252.72 233.996L7486.72 233.996Z" fill="#FFFFFF"/>
<rect x="5398.72" y="234" width="750" height="234" fill="#FFFFFF"/>
<path d="M5816.71 932L6148.71 932V1166H5816.71C5641.21 1166 5548.72 1059 5548.71 738.5H5780.21C5780.21 910 5780.21 932 5816.71 932Z" fill="#FFFFFF"/>
<path d="M2465.72 649.968L2465.72 1165.97L2231.72 1165.97L2231.72 649.968C2231.72 396 1792.22 410 1756.22 594.97L1756.22 329.471C1920.72 158.5 2465.72 183.497 2465.72 649.968Z" fill="#FFFFFF"/>
<path d="M5398.72 649.509L5398.72 1165.51L5164.72 1165.51L5164.72 649.509C5164.72 395.541 4725.22 409.541 4689.22 594.511L4689.22 329.012C4853.72 158.041 5398.72 183.038 5398.72 649.509Z" fill="#FFFFFF"/>
<rect x="79.7158" y="932" width="1041" height="234" fill="#FFFFFF"/>
<path d="M7170 694.5C7170 960.977 6944.58 1177 6666.5 1177C6388.42 1177 6163 960.977 6163 694.5C6163 428.023 6388.42 212 6666.5 212C6944.58 212 7170 428.023 7170 694.5ZM6404.55 694.5C6404.55 833.137 6521.83 945.524 6666.5 945.524C6811.17 945.524 6928.45 833.137 6928.45 694.5C6928.45 555.863 6811.17 443.476 6666.5 443.476C6521.83 443.476 6404.55 555.863 6404.55 694.5Z" fill="#FFFFFF"/>
<rect x="79.7158" width="1041" height="234" fill="#FFFFFF"/>
<path d="M79.7162 733L1120.72 234.004L1120.72 442.504L79.7185 932.006L79.7162 733Z" fill="#2AC3DF"/>
<rect x="1425.72" y="234" width="932" height="234" transform="rotate(90 1425.72 234)" fill="#FFFFFF"/>
<path d="M2650.72 234L2921.72 1166L2687.72 1166L2416.72 234L2650.72 234Z" fill="#FFFFFF"/>
<path d="M8170.72 242L8441.72 1174L8207.72 1174L7936.72 242L8170.72 242Z" fill="#FFFFFF"/>
<path d="M8722.72 242L8340.72 1507L8574.72 1507L8956.72 242L8722.72 242Z" fill="#2AC3DF"/>
<path d="M3192.72 234L2921.72 1166L3155.72 1166L3426.72 234L3192.72 234Z" fill="#2AC3DF"/>
<rect width="169" height="234" transform="matrix(4.37114e-08 -1 -1 -4.37114e-08 1425.72 169)" fill="#2AC3DF"/>
<rect x="1757.72" y="234" width="932" height="234" transform="rotate(90 1757.72 234)" fill="#FFFFFF"/>
<rect x="4690.72" y="233.541" width="932" height="234" transform="rotate(90 4690.72 233.541)" fill="#FFFFFF"/>
<path d="M7486.72 233.996L7486.72 397.496C7536.72 257.5 7739.72 216.5 7923.22 243.996L7923.22 466.996C7691.22 466.996 7486.72 488 7486.72 647.496L7486.72 699.996L7486.72 1166L7252.72 1166L7252.72 233.996L7486.72 233.996Z" fill="#FFFFFF"/>
<rect x="5398.72" y="234" width="750" height="234" fill="#FFFFFF"/>
<path d="M5780.72 0L5780.72 739L5546.72 739L5546.72 -1.02285e-05L5780.72 0Z" fill="#FFFFFF"/>
<path d="M5816.71 932L6148.71 932V1166H5816.71C5641.21 1166 5546.72 1059 5546.71 738.5H5780.21C5780.21 910 5780.21 932 5816.71 932Z" fill="#FFFFFF"/>
<path d="M3395.5 544C3474.17 321.655 3648.71 233.259 3886.71 233.254V470.254C3807.71 470.254 3705.71 484.5 3648.71 570.754H3886.71L4126.71 570.754C4078.21 488.5 3973.21 470.254 3886.71 470.254V233.254C4181.5 233.247 4338.5 371.5 4401.71 570.754C4420.83 631 4406.71 738.754 4406.71 738.754L4146.71 738.754L3886.71 738.754H3626.71C3626.71 1003 4042.21 985.5 4137.21 839.5H4372.21C4327.71 1323.5 3366.72 1323 3366.71 738.754C3366.71 661.872 3375.22 601.297 3395.5 544Z" fill="#FFFFFF"/>
<path d="M2465.72 649.968L2465.72 1165.97L2231.72 1165.97L2231.72 649.968C2231.72 396 1792.22 410 1756.22 594.97L1756.22 329.471C1920.72 158.5 2465.72 183.497 2465.72 649.968Z" fill="#FFFFFF"/>
<path d="M5398.72 649.509L5398.72 1165.51L5164.72 1165.51L5164.72 649.509C5164.72 395.541 4725.22 409.541 4689.22 594.511L4689.22 329.012C4853.72 158.041 5398.72 183.038 5398.72 649.509Z" fill="#FFFFFF"/>
<rect x="79.7158" y="932" width="1041" height="234" fill="#FFFFFF"/>
<path d="M7170 694.5C7170 960.977 6944.58 1177 6666.5 1177C6388.42 1177 6163 960.977 6163 694.5C6163 428.023 6388.42 212 6666.5 212C6944.58 212 7170 428.023 7170 694.5ZM6404.55 694.5C6404.55 833.137 6521.83 945.524 6666.5 945.524C6811.17 945.524 6928.45 833.137 6928.45 694.5C6928.45 555.863 6811.17 443.476 6666.5 443.476C6521.83 443.476 6404.55 555.863 6404.55 694.5Z" fill="#FFFFFF"/>
</svg>
